<svg width="46" height="46" viewBox="0 0 46 46" fill="none" xmlns="http://www.w3.org/2000/svg">
<path d="M28.75 25.875V35.2188C28.75 37.95 30.3312 40.5375 32.9187 41.6875L35.9375 43.125L38.9563 41.6875C41.4 40.5375 43.125 37.95 43.125 35.2188V25.875H28.75ZM40.25 35.2188C40.25 36.9438 39.2437 38.3813 37.8062 39.1L35.9375 39.9625L34.0688 39.1C32.6313 38.3813 31.625 36.8 31.625 35.2188V28.75H40.25V35.2188ZM23 28.75C19.8375 28.75 17.25 26.1625 17.25 23C17.25 19.8375 19.8375 17.25 23 17.25C26.1625 17.25 28.75 19.8375 28.75 23H25.875C25.875 21.4187 24.5813 20.125 23 20.125C21.4187 20.125 20.125 21.4187 20.125 23C20.125 24.5813 21.4187 25.875 23 25.875V28.75Z" fill="#5D48EC"/>
<path d="M23 35.9375C15.8125 35.9375 10.0625 30.1875 10.0625 23C10.0625 15.8125 15.8125 10.0625 23 10.0625C30.1875 10.0625 35.9375 15.8125 35.9375 23H33.0625C33.0625 17.3937 28.6063 12.9375 23 12.9375C17.3937 12.9375 12.9375 17.3937 12.9375 23C12.9375 28.6063 17.3937 33.0625 23 33.0625V35.9375Z" fill="#5D48EC"/>
<path d="M23 43.125C11.9313 43.125 2.875 34.0688 2.875 23C2.875 11.9313 11.9313 2.875 23 2.875C34.0688 2.875 43.125 11.9313 43.125 23H40.25C40.25 13.5125 32.4875 5.75 23 5.75C13.5125 5.75 5.75 13.5125 5.75 23C5.75 32.4875 13.5125 40.25 23 40.25V43.125Z" fill="#5D48EC"/>
</svg>
