<svg width="46" height="46" viewBox="0 0 46 46" fill="none" xmlns="http://www.w3.org/2000/svg">
<g clip-path="url(#clip0_29_10347)">
<path fill-rule="evenodd" clip-rule="evenodd" d="M14.8062 3.5363C14.3692 4.5943 14.3692 5.93118 14.3692 8.62506C14.3692 11.3189 14.3692 12.6501 14.8062 13.7138C15.3898 15.1226 16.5082 16.2409 17.9112 16.8188C18.9692 17.2558 20.306 17.2558 22.9999 17.2558V23.0058H10.0624C8.91867 23.0058 7.82177 23.4602 7.01302 24.2689C6.20427 25.0777 5.74992 26.1746 5.74992 27.3183V28.7932C4.80979 28.8421 4.13704 28.9484 3.55054 29.1928C2.14179 29.7764 1.02342 30.8948 0.445545 32.2978C0.00854492 33.3558 0.00854492 34.6956 0.00854492 37.3866C0.00854492 40.0776 0.00854492 41.4116 0.445545 42.4753C1.02917 43.8841 2.14754 45.0024 3.55054 45.5803C4.60854 46.0173 5.94542 46.0173 8.6393 46.0173C11.3332 46.0173 12.6643 46.0173 13.728 45.5803C15.1368 44.9967 16.2552 43.8783 16.833 42.4753C17.27 41.4173 17.27 40.0776 17.27 37.3866C17.27 34.6956 17.27 33.3616 16.833 32.2978C16.2496 30.8928 15.1331 29.7763 13.728 29.1928C12.67 28.7558 11.3332 28.7558 8.6393 28.7558V27.3183C8.6393 26.9371 8.79074 26.5714 9.06033 26.3018C9.32991 26.0323 9.69555 25.8808 10.0768 25.8808H35.9518C36.333 25.8808 36.6987 26.0323 36.9683 26.3018C37.2378 26.5714 37.3893 26.9371 37.3893 27.3183V28.7558C34.7098 28.7558 33.3643 28.7558 32.3005 29.1928C30.8918 29.7764 29.7734 30.8948 29.1955 32.2978C28.7585 33.3558 28.7585 34.6956 28.7585 37.3866C28.7585 40.0776 28.7585 41.4116 29.1955 42.4753C29.7792 43.8841 30.8975 45.0024 32.3005 45.5803C33.3585 46.0173 34.6983 46.0173 37.3893 46.0173C40.0803 46.0173 41.4143 46.0173 42.478 45.5803C43.8868 44.9967 45.0052 43.8783 45.583 42.4753C46.02 41.4173 46.02 40.0776 46.02 37.3866C46.02 34.6956 46.02 33.3616 45.583 32.2978C44.9996 30.8928 43.8831 29.7763 42.478 29.1928C41.8915 28.9513 41.2188 28.8421 40.2787 28.7932V27.3183C40.2787 26.1746 39.8243 25.0777 39.0156 24.2689C38.2068 23.4602 37.1099 23.0058 35.9662 23.0058H25.9037V17.2271C26.8438 17.1782 27.5165 17.0718 28.103 16.8274C29.5118 16.2438 30.6302 15.1254 31.208 13.7224C31.645 12.6644 31.645 11.3276 31.645 8.63368C31.645 5.93981 31.645 4.60868 31.208 3.54493C30.6246 2.13992 29.5081 1.02341 28.103 0.43993C27.045 0.00292969 25.7082 0.00292969 23.0143 0.00292969C20.3204 0.00292969 18.9893 0.00292969 17.9255 0.43993C16.5168 1.02355 15.3984 2.14193 14.8205 3.54493L14.8062 3.5363ZM3.19117 33.1488C2.87779 33.7641 2.87779 34.5691 2.87779 36.1676V38.4676C2.87779 40.0776 2.87779 40.8826 3.19117 41.4863C3.46717 42.0268 3.90705 42.4667 4.44755 42.7427C5.0628 43.0561 5.86779 43.0561 7.46629 43.0561H9.7663C11.3763 43.0561 12.1813 43.0561 12.785 42.7427C13.3255 42.4667 13.7654 42.0268 14.0414 41.4863C14.3548 40.8711 14.3548 40.0661 14.3548 38.4676V36.1676C14.3548 34.5576 14.3548 33.7526 14.0414 33.1488C13.7658 32.6079 13.326 32.1681 12.785 31.8924C12.1698 31.5791 11.3648 31.5791 9.7663 31.5791H7.46629C5.85629 31.5791 5.05129 31.5791 4.44755 31.8924C3.9066 32.1681 3.4668 32.6079 3.19117 33.1488ZM31.6249 36.1676C31.6249 34.5576 31.6249 33.7526 31.9383 33.1488C32.2143 32.6083 32.6542 32.1684 33.1947 31.8924C33.8099 31.5791 34.6149 31.5791 36.2134 31.5791H38.5134C40.1234 31.5791 40.9284 31.5791 41.5322 31.8924C42.0727 32.1684 42.5125 32.6083 42.7885 33.1488C43.1019 33.7641 43.1019 34.5691 43.1019 36.1676V38.4676C43.1019 40.0776 43.1019 40.8826 42.7885 41.4863C42.5129 42.0272 42.0731 42.467 41.5322 42.7427C40.9169 43.0561 40.1119 43.0561 38.5134 43.0561H36.2134C34.6034 43.0561 33.7984 43.0561 33.1947 42.7427C32.6537 42.467 32.2139 42.0272 31.9383 41.4863C31.6249 40.8711 31.6249 40.0661 31.6249 38.4676V36.1676ZM17.5662 4.25505C17.2528 4.8703 17.2528 5.6753 17.2528 7.2738V9.5738C17.2528 11.1838 17.2528 11.9888 17.5662 12.5926C17.8422 13.1331 18.282 13.5729 18.8225 13.8489C19.4378 14.1623 20.2428 14.1623 21.8413 14.1623H24.1413C25.7513 14.1623 26.5563 14.1623 27.16 13.8489C27.7005 13.5729 28.1404 13.1331 28.4164 12.5926C28.7298 11.9773 28.7298 11.1723 28.7298 9.5738V7.2738C28.7298 5.66381 28.7298 4.8588 28.4164 4.25505C28.1408 3.71411 27.701 3.27431 27.16 2.99868C26.5448 2.6853 25.7398 2.6853 24.1413 2.6853H21.8413C20.2313 2.6853 19.4263 2.6853 18.8225 2.99868C18.2816 3.27431 17.8418 3.71411 17.5662 4.25505Z" fill="#5D48EC"/>
</g>
<defs>
<clipPath id="clip0_29_10347">
<rect width="46" height="46" fill="white"/>
</clipPath>
</defs>
</svg>
