<svg width="46" height="46" viewBox="0 0 46 46" fill="none" xmlns="http://www.w3.org/2000/svg">
<path d="M21.7939 8.18652C22.4692 7.83773 23.4449 7.81988 24.1582 8.12891L24.2969 8.19531C28.7692 10.5286 32.9124 13.1981 36.5459 16.0859L37.2656 16.666C37.4587 16.8245 37.5478 16.9789 37.5811 17.1094L37.5977 17.2314C37.5988 17.3635 37.5456 17.5336 37.3643 17.7129L37.2783 17.791L37.2773 17.792C33.6873 20.7588 29.6061 23.4638 25.1094 25.8574L24.2051 26.332C23.5298 26.6808 22.5541 26.6987 21.8408 26.3896L21.7021 26.3232C17.2298 23.9899 13.0866 21.3205 9.45312 18.4326L8.7334 17.8516C8.54069 17.6933 8.45121 17.5395 8.41797 17.4092L8.40137 17.2871C8.40027 17.1549 8.45302 16.9841 8.63477 16.8047L8.7207 16.7275L8.72168 16.7266C12.3117 13.7598 16.393 11.0547 20.8896 8.66113L21.7939 8.18652Z" stroke="#5D48EC" stroke-width="3"/>
<path d="M40.1697 26.3173C40.3352 26.22 40.4795 26.0905 40.5942 25.9365C40.7088 25.7825 40.7914 25.6071 40.8372 25.4207C40.8829 25.2342 40.8909 25.0405 40.8605 24.8509C40.8302 24.6614 40.7622 24.4798 40.6605 24.3169C40.5589 24.1541 40.4256 24.0132 40.2686 23.9027C40.1117 23.7922 39.9341 23.7142 39.7465 23.6735C39.5589 23.6327 39.3651 23.6299 39.1764 23.6652C38.9877 23.7006 38.808 23.7734 38.6479 23.8793L26.9409 31.1875C25.8982 31.8392 24.4818 32.2015 23.0002 32.2015C21.5186 32.2015 20.1003 31.8373 19.0576 31.1875L7.48096 23.9617C7.1574 23.7599 6.76693 23.6949 6.39545 23.781C6.02396 23.8671 5.70189 24.0972 5.50008 24.4208C5.29827 24.7443 5.23326 25.1348 5.31935 25.5063C5.40544 25.8777 5.63557 26.1998 5.95912 26.4016L17.5358 33.6275C19.1247 34.6184 21.095 35.0765 22.9983 35.0765C24.9054 35.0765 26.8757 34.6165 28.4646 33.6255L40.1697 26.3173Z" fill="#5D48EC"/>
<path d="M40.1692 33.5146C40.3347 33.4173 40.479 33.2878 40.5937 33.1338C40.7083 32.9798 40.791 32.8044 40.8367 32.6179C40.8825 32.4315 40.8904 32.2378 40.86 32.0482C40.8297 31.8586 40.7617 31.6771 40.66 31.5142C40.5584 31.3514 40.4251 31.2105 40.2682 31.1C40.1112 30.9895 39.9337 30.9115 39.7461 30.8707C39.5585 30.8299 39.3646 30.8271 39.1759 30.8625C38.9872 30.8978 38.8075 30.9706 38.6474 31.0766L28.5082 37.4073C27.0285 38.3311 25.0467 38.8314 22.9997 38.8314C20.9527 38.8314 18.9709 38.3331 17.4893 37.4073L7.48046 31.159C7.32026 31.0589 7.14191 30.9914 6.95561 30.9603C6.76931 30.9292 6.57871 30.935 6.39468 30.9776C6.21064 31.0201 6.0368 31.0985 5.88305 31.2082C5.72931 31.3179 5.59868 31.4569 5.49863 31.6171C5.39858 31.7773 5.33106 31.9556 5.29994 32.1419C5.26881 32.3282 5.27468 32.5188 5.31722 32.7029C5.35976 32.8869 5.43813 33.0607 5.54785 33.2145C5.65757 33.3682 5.79651 33.4988 5.95671 33.5989L15.9655 39.8472C17.9934 41.1122 20.5291 41.7064 22.9997 41.7064C25.4703 41.7064 28.0041 41.1122 30.0339 39.8453L40.1692 33.5146Z" fill="#5D48EC"/>
</svg>
