<svg width="20" height="20" viewBox="0 0 20 20" fill="none" xmlns="http://www.w3.org/2000/svg">
<g clip-path="url(#clip0_0_9430)">
<path d="M15.3501 19.9996C14.9977 19.9409 14.6453 19.9018 14.2928 19.8284C13.0594 19.5692 11.9238 19.0605 10.8371 18.4247C9.24635 17.4905 7.82197 16.3312 6.4857 15.0693C5.29627 13.9492 4.17537 12.7607 3.16216 11.4743C2.09999 10.1195 1.16509 8.68145 0.558144 7.05758C0.205721 6.10381 -0.0341223 5.12557 0.0050358 4.10332C0.0246148 3.57507 0.112721 3.04193 0.23509 2.52836C0.362353 1.98544 0.709882 1.55991 1.18467 1.26155C1.77205 0.889817 2.36921 0.52787 2.97126 0.180597C3.55863 -0.156894 4.19006 -0.019941 4.57185 0.537653C5.47738 1.87294 6.37312 3.21312 7.25907 4.56309C7.62618 5.12557 7.50871 5.75653 6.98007 6.17717C6.51997 6.54401 6.05496 6.89618 5.59485 7.25812C5.2718 7.50757 5.23264 7.72278 5.42354 8.08473C5.96686 9.14122 6.68149 10.0705 7.49402 10.9314C8.50234 11.9977 9.53024 13.0395 10.749 13.871C11.1455 14.14 11.5714 14.3748 11.9874 14.6096C12.2762 14.771 12.5063 14.7074 12.7216 14.4335C13.0643 13.9982 13.402 13.558 13.7397 13.1226C14.2635 12.4477 14.8704 12.3498 15.5753 12.8194C16.7892 13.6264 17.9982 14.4433 19.217 15.2405C19.589 15.4851 19.8925 15.759 20.0099 16.2041C20.0099 16.3361 20.0099 16.4633 20.0099 16.5954C19.9512 16.7372 19.9071 16.8888 19.8288 17.0209C19.4764 17.6127 19.1289 18.2095 18.7618 18.7915C18.4289 19.3198 17.9443 19.6572 17.3325 19.7991C16.9899 19.8773 16.6423 19.9263 16.2997 19.9898C15.9766 19.9996 15.6634 19.9996 15.3501 19.9996ZM15.9718 19.3344C16.1382 19.3149 16.4563 19.2953 16.7745 19.2513C17.4598 19.1583 17.9933 18.8404 18.3359 18.2192C18.6051 17.7301 18.9086 17.2606 19.1974 16.7812C19.4226 16.4095 19.3687 16.1601 19.0065 15.9204C17.729 15.0693 16.4514 14.2183 15.1739 13.3672C14.797 13.1177 14.5621 13.152 14.288 13.5041C13.9355 13.9541 13.588 14.409 13.2307 14.859C12.8097 15.3921 12.2322 15.5144 11.635 15.1916C11.3315 15.0253 11.0329 14.859 10.7393 14.678C9.6673 14.0177 8.75198 13.1667 7.86113 12.2862C6.68639 11.1221 5.59485 9.89936 4.83127 8.41733C4.49353 7.75702 4.59143 7.19943 5.1739 6.74455C5.62912 6.38749 6.08923 6.03533 6.54444 5.67827C6.82833 5.45328 6.87239 5.19405 6.6717 4.8908C5.79554 3.57018 4.91938 2.25445 4.03832 0.94362C3.84742 0.659932 3.57332 0.601238 3.27474 0.772429C2.73631 1.09036 2.20278 1.41317 1.66926 1.73599C1.22873 2.00011 0.939935 2.37673 0.817566 2.87563C0.572828 3.87343 0.631565 4.86145 0.881198 5.84946C1.28746 7.46355 2.09999 8.88199 3.05937 10.2222C4.32222 11.9879 5.81022 13.5482 7.41081 15.0106C8.85477 16.3264 10.3917 17.5149 12.1538 18.3758C13.309 18.9333 14.518 19.3197 15.9718 19.3344Z" fill="#5D48EC"/>
<path d="M17.6607 8.67187C17.6607 8.8186 17.6656 8.91154 17.6607 8.99958C17.6509 9.18055 17.5335 9.31261 17.3622 9.33218C17.2006 9.35174 17.0538 9.23924 17.0097 9.05827C16.9951 8.99469 16.9951 8.9311 16.9902 8.86262C16.9021 6.20672 15.0665 3.99591 12.4674 3.45788C12.0856 3.37962 11.694 3.36984 11.3073 3.33071C11.1556 3.31604 11.0528 3.23289 11.0137 3.08615C10.9794 2.93942 11.0185 2.80735 11.1556 2.73399C11.2339 2.69486 11.3269 2.67529 11.415 2.67529C13.0792 2.71931 14.5281 3.30136 15.7273 4.46057C16.7405 5.4388 17.3622 6.63225 17.5775 8.03113C17.6167 8.26101 17.6412 8.4909 17.6607 8.67187Z" fill="#5D48EC"/>
<path d="M11.5418 4.676C13.7983 4.78361 15.5996 6.62269 15.6632 8.8873C15.673 9.16121 15.5507 9.32751 15.3402 9.3324C15.1395 9.33729 15.0122 9.18077 15.0024 8.91665C14.9241 7.31723 13.9941 6.04553 12.4963 5.53685C12.1929 5.43413 11.86 5.40968 11.5418 5.35098C11.4586 5.33631 11.3705 5.3412 11.2922 5.32164C11.1062 5.2874 11.0034 5.16023 11.0132 4.97925C11.023 4.80806 11.1454 4.68578 11.3314 4.676C11.395 4.67111 11.4684 4.676 11.5418 4.676Z" fill="#5D48EC"/>
<path d="M11.4493 6.67649C12.6338 6.71073 13.6519 7.74766 13.6666 8.93132C13.6715 9.16121 13.5491 9.31772 13.3533 9.3324C13.1673 9.34707 13.0205 9.21012 13.0009 8.97534C12.9617 8.46666 12.7708 8.03135 12.3646 7.70853C12.1101 7.5031 11.8164 7.38571 11.4933 7.35147C11.415 7.34169 11.3367 7.34169 11.2633 7.32212C11.0822 7.2781 10.9891 7.14115 11.0136 6.96018C11.0332 6.79877 11.1556 6.69116 11.3367 6.67649C11.3709 6.6716 11.4101 6.67649 11.4493 6.67649Z" fill="#5D48EC"/>
</g>
<defs>
<clipPath id="clip0_0_9430">
<rect width="20" height="20" fill="white"/>
</clipPath>
</defs>
</svg>
